<?xml version="1.0" encoding="UTF-8" standalone="no"?>
<svg
   xmlns:dc="http://purl.org/dc/elements/1.1/"
   xmlns:cc="http://creativecommons.org/ns#"
   xmlns:rdf="http://www.w3.org/1999/02/22-rdf-syntax-ns#"
   xmlns:svg="http://www.w3.org/2000/svg"
   xmlns="http://www.w3.org/2000/svg"
   xmlns:sodipodi="http://sodipodi.sourceforge.net/DTD/sodipodi-0.dtd"
   xmlns:inkscape="http://www.inkscape.org/namespaces/inkscape"
   height="448pt"
   viewBox="0 0 448 448"
   width="448pt"
   version="1.1"
   id="svg4"
   sodipodi:docname="subtract.svg"
   inkscape:version="1.0.1 (3bc2e813f5, 2020-09-07)">
  <metadata
     id="metadata10">
    <rdf:RDF>
      <cc:Work
         rdf:about="">
        <dc:format>image/svg+xml</dc:format>
        <dc:type
           rdf:resource="http://purl.org/dc/dcmitype/StillImage" />
        <dc:title></dc:title>
      </cc:Work>
    </rdf:RDF>
  </metadata>
  <defs
     id="defs8" />
  <sodipodi:namedview
     pagecolor="#ffffff"
     bordercolor="#666666"
     borderopacity="1"
     objecttolerance="10"
     gridtolerance="10"
     guidetolerance="10"
     inkscape:pageopacity="0"
     inkscape:pageshadow="2"
     inkscape:window-width="1920"
     inkscape:window-height="1009"
     id="namedview6"
     showgrid="false"
     inkscape:zoom="0.69726565"
     inkscape:cx="150.77778"
     inkscape:cy="248.71146"
     inkscape:window-x="0"
     inkscape:window-y="0"
     inkscape:window-maximized="1"
     inkscape:current-layer="svg4"
     inkscape:document-rotation="0" />
  <path
     id="path2"
     style="fill:#dc3545;fill-opacity:1;stroke-width:1.33333"
     d="M 234.9668 245.31836 C 234.86605 245.32117 234.76744 245.33398 234.66602 245.33398 L 53.333984 245.33398 C 23.88086 245.33398 4.7369516e-15 269.21289 0 298.66602 C 0 328.11914 23.88086 352 53.333984 352 L 234.66602 352 C 235.24708 352 235.81326 352.05902 236.36914 352.14844 L 360.96289 352.14844 C 361.51874 352.05902 362.08495 352 362.66602 352 L 544 352 C 573.45312 352 597.33398 328.11914 597.33398 298.66602 C 597.33398 269.21289 573.45312 245.33398 544 245.33398 L 362.66602 245.33398 C 362.56441 245.33398 362.46616 245.32118 362.36523 245.31836 L 234.9668 245.31836 z "
     transform="scale(0.75000003)" />
</svg>
